<?xml version="1.0" encoding="UTF-8"?>
<svg xmlns="http://www.w3.org/2000/svg" width="72" height="72" viewBox="0 0 72 72" fill="none">
  <path fill-rule="evenodd" clip-rule="evenodd" d="M20.4954 19.041C20.9642 19.1913 21.4781 19.1419 21.9062 18.9053L27.5584 15.7822C27.9859 15.546 28.2868 15.146 28.3849 14.6835L29.5223 9.31995C29.6851 8.55202 30.3915 8.00002 31.2114 8.00002L40.7885 8C41.6084 8 42.3148 8.552 42.4776 9.31993L43.615 14.6834C43.713 15.1459 44.014 15.546 44.4414 15.7822L50.0938 18.9053C50.5219 19.1419 51.0357 19.1913 51.5046 19.041L56.9338 17.3005C57.7107 17.0515 58.5637 17.3596 58.9739 18.0376L63.7684 25.9613C64.1791 26.64 64.0323 27.5012 63.4175 28.0202L59.1232 31.6454C58.7529 31.958 58.5407 32.4076 58.5407 32.8798V39.1202C58.5407 39.5924 58.7529 40.042 59.1232 40.3546L63.4175 43.9797C64.0323 44.4988 64.1791 45.36 63.7684 46.0386L58.9739 53.9624C58.5637 54.6404 57.7107 54.9485 56.9338 54.6995L51.5046 52.959C51.0357 52.8087 50.5219 52.8581 50.0938 53.0947L44.4415 56.2178C44.014 56.454 43.713 56.8541 43.615 57.3166L42.4776 62.6801C42.3148 63.448 41.6084 64 40.7885 64L31.2114 64C30.3915 64 29.6851 63.448 29.5223 62.68L28.3849 57.3165C28.2868 56.854 27.9859 56.454 27.5584 56.2178L21.9062 53.0946C21.4781 52.8581 20.9642 52.8087 20.4954 52.959L15.0662 54.6994C14.2893 54.9485 13.4363 54.6403 13.0261 53.9624L8.23156 46.0386C7.82091 45.3599 7.96772 44.4987 8.58254 43.9797L12.8768 40.3545C13.2472 40.0419 13.4593 39.5924 13.4593 39.1201V32.8799C13.4593 32.4076 13.2472 31.9581 12.8768 31.6455L8.58254 28.0203C7.96772 27.5013 7.82091 26.6401 8.23156 25.9614L13.0261 18.0376C13.4363 17.3597 14.2893 17.0515 15.0662 17.3005L20.4954 19.041Z" stroke="#017737" stroke-width="2"></path>
  <circle cx="36" cy="36" r="8" stroke="#017737" stroke-width="2"></circle>
</svg>
